<?xml version="1.0" encoding="utf-8"?>
<!-- Generator: Adobe Illustrator 17.0.0, SVG Export Plug-In . SVG Version: 6.00 Build 0)  -->
<!DOCTYPE svg PUBLIC "-//W3C//DTD SVG 1.1//EN" "http://www.w3.org/Graphics/SVG/1.1/DTD/svg11.dtd">
<svg version="1.1" id="feedly.svg_1_" xmlns="http://www.w3.org/2000/svg" xmlns:xlink="http://www.w3.org/1999/xlink" x="0px"
	 y="0px" width="11px" height="12px" viewBox="0 0 11 12" enable-background="new 0 0 11 12" xml:space="preserve">
<g id="feedly.svg">
	<g>
		<path fill-rule="evenodd" clip-rule="evenodd" fill="#428BCA" d="M10.941,6.391c-0.256-0.929-2.203-2.895-2.816-3.692
			C7.436,1.804,6.54-0.015,5.224,0C3.757,1.167,2.679,2.96,1.478,4.473C1.037,5.029,0.203,5.645,0.041,6.497
			C-0.22,7.876,0.822,8.582,1.309,9.195c0.478,0.602,1.759,2.542,2.338,2.769C4.397,11.976,5.149,11.988,5.9,12
			c0.488-0.012,0.976-0.024,1.465-0.035c0.49-0.189,0.852-0.832,1.155-1.278c0.77-0.982,1.54-1.965,2.31-2.947
			C10.985,7.434,11.061,6.827,10.941,6.391z M2.999,7.491H2.351C2.201,7.325,2.05,7.16,1.9,6.994
			c0.035-0.615,0.575-0.928,0.845-1.278c0.864-1.1,1.728-2.201,2.591-3.302h0.197C5.749,2.668,6.153,2.98,6.209,3.408
			C5.139,4.769,4.069,6.13,2.999,7.491z M5.759,10.935c-0.225,0.012-0.451,0.024-0.676,0.036c-0.141-0.189-0.282-0.379-0.422-0.568
			c-0.009-0.059-0.019-0.118-0.028-0.177c0.225-0.284,0.451-0.568,0.676-0.852h0.169c0.216,0.284,0.432,0.568,0.648,0.852
			c0.009,0.071,0.019,0.142,0.028,0.213C6.022,10.604,5.89,10.769,5.759,10.935z M4.435,9.266H3.787
			C3.646,9.089,3.506,8.911,3.365,8.734C3.355,8.675,3.346,8.615,3.337,8.556c0.732-0.935,1.465-1.87,2.197-2.805h0.197
			c0.224,0.206,0.64,0.609,0.676,1.03C5.749,7.609,5.092,8.438,4.435,9.266z"/>
	</g>
</g>
</svg>
