<?xml version="1.0" encoding="utf-8"?>
<!-- Generator: Adobe Illustrator 17.0.0, SVG Export Plug-In . SVG Version: 6.00 Build 0)  -->
<!DOCTYPE svg PUBLIC "-//W3C//DTD SVG 1.1//EN" "http://www.w3.org/Graphics/SVG/1.1/DTD/svg11.dtd">
<svg version="1.1" id="シェイプ_1_1_" xmlns="http://www.w3.org/2000/svg" xmlns:xlink="http://www.w3.org/1999/xlink" x="0px"
	 y="0px" width="12px" height="12px" viewBox="0 0 12 12" enable-background="new 0 0 12 12" xml:space="preserve">
<g id="シェイプ_1">
	<g>
		<path fill-rule="evenodd" clip-rule="evenodd" fill="#428BCA" d="M0,0v12h12V0H0z M9.867,10.667
			c-0.444-0.444-0.889-0.889-1.333-1.333c-0.333,0.178-0.667,0.356-1,0.533c-1.32,0.542-3.249,0.215-4.2-0.4
			C1.117,8.033,0.8,3.972,3,2.267c0.622-0.482,1.344-0.573,2.133-0.933c4.368-0.08,6.444,3.674,4.2,7.133
			C10.353,9.185,11.058,9.85,9.867,10.667z M5.333,2.533c-1.278,0.568-2.179,0.932-2.6,2.333C2.041,7.174,4.079,9.407,6.4,8.933
			C10.174,8.163,9.957,2.382,5.333,2.533z"/>
	</g>
</g>
</svg>
