<?xml version="1.0" encoding="utf-8"?>
<!-- Generator: Adobe Illustrator 17.0.0, SVG Export Plug-In . SVG Version: 6.00 Build 0)  -->
<!DOCTYPE svg PUBLIC "-//W3C//DTD SVG 1.1//EN" "http://www.w3.org/Graphics/SVG/1.1/DTD/svg11.dtd">
<svg version="1.1" id="レイヤー_1" xmlns="http://www.w3.org/2000/svg" xmlns:xlink="http://www.w3.org/1999/xlink" x="0px"
	 y="0px" width="12px" height="12px" viewBox="0 0 12 12" enable-background="new 0 0 12 12" xml:space="preserve">
<g id="radar.psd">
	<defs>
		<rect id="SVGID_1_" width="12" height="12"/>
	</defs>
	<clipPath id="SVGID_2_">
		<use xlink:href="#SVGID_1_"  overflow="visible"/>
	</clipPath>
	<g id="シェイプ_1" clip-path="url(#SVGID_2_)">
		<g>
			<path fill-rule="evenodd" clip-rule="evenodd" fill="#428BCA" d="M7.564,1.672C7.071,1.319,6.608,0.698,5.93,0.562
				C4.063,1.925,2.195,3.288,0.328,4.651c0.72,2.278,1.44,4.556,2.159,6.833c2.373,0,4.746,0,7.119,0
				c0.72-2.278,1.44-4.556,2.159-6.833C10.365,3.658,8.964,2.665,7.564,1.672z M6.105,1.03c1.653,1.188,3.307,2.375,4.96,3.563
				c0.039,0.058,0.078,0.117,0.117,0.175c-0.37,0.097-0.739,0.195-1.109,0.292c-1.632-0.5-2.71-2.32-3.968-3.271
				C6.105,1.536,6.105,1.283,6.105,1.03z M4.18,5.936C4.238,5.858,4.296,5.78,4.355,5.702c0.486,0.117,0.973,0.234,1.459,0.35
				c0.039,0,0.078,0,0.117,0c-0.467,0.74-0.934,1.48-1.401,2.219C4.491,8.292,4.452,8.311,4.413,8.33
				C4.373,7.925,4.334,7.52,4.294,7.115C4.275,8.213,3.84,9.462,3.479,9.791C3.46,9.83,3.44,9.868,3.421,9.907
				C3.181,8.889,2.377,6.21,2.604,5.293c0.408,0.097,0.817,0.195,1.225,0.292c0.209,0.193,0.326,0.483,0.395,0.808
				C4.209,6.241,4.194,6.088,4.18,5.936z M7.039,7.688C6.574,8.121,5.327,8.352,4.588,8.447c0-0.019,0-0.039,0-0.058
				c0.467-0.74,0.934-1.48,1.401-2.219C6.339,6.676,6.689,7.182,7.039,7.688z M6.164,6.053c0.486-0.117,0.973-0.234,1.459-0.35
				C7.681,5.741,7.739,5.78,7.797,5.819c-0.049,0.493-0.304,1.583-0.7,1.752C6.786,7.065,6.475,6.559,6.164,6.053z M5.989,5.936
				c-0.525-0.117-1.05-0.234-1.576-0.35C4.393,5.546,4.374,5.508,4.355,5.469c0.467-0.35,0.934-0.701,1.401-1.051
				c0.078,0,0.156,0,0.233,0C5.989,4.923,5.989,5.43,5.989,5.936z M6.747,8.038c0.195,0.019,0.389,0.039,0.584,0.058
				c0.233,0.409,0.467,0.818,0.7,1.227c0,0.019,0,0.039,0,0.058C6.553,9.596,5.074,9.81,3.596,10.024
				C4.019,8.421,5.374,8.701,6.747,8.038z M8.264,5.585C8.576,5.508,8.887,5.43,9.198,5.352c0.097,0,0.195,0,0.292,0
				C9.509,5.391,9.529,5.43,9.548,5.469C9.14,6.714,8.731,7.961,8.323,9.207c-0.019,0-0.039,0-0.058,0
				C6.911,8.074,7.737,6.938,8.264,5.585z M6.105,2.315c1.109,0.934,2.218,1.869,3.326,2.803C8.276,5.936,6.52,4.832,6.105,3.892
				C6.105,3.366,6.105,2.84,6.105,2.315z M6.105,4.417c0.652,0.14,0.956,0.684,1.517,0.935C7.661,5.41,7.7,5.469,7.739,5.527
				C7.214,5.663,6.689,5.8,6.164,5.936c-0.019,0-0.039,0-0.058,0C6.105,5.43,6.105,4.923,6.105,4.417z M3.888,5.469
				C3.46,5.371,3.032,5.274,2.604,5.177C3.713,4.223,4.822,3.268,5.93,2.315C6.674,4.02,4.879,5.232,3.888,5.469z M5.93,1.03
				C5.95,1.263,5.969,1.497,5.989,1.731C5.103,2.913,3.474,4.44,2.079,5.06C1.709,4.982,1.34,4.904,0.97,4.826
				C0.951,4.787,0.931,4.748,0.912,4.709C2.584,3.483,4.258,2.256,5.93,1.03z M0.737,4.885c0.447,0.097,0.895,0.195,1.342,0.292
				C2.468,6.844,3.474,9.329,2.837,10.9c-0.039,0.019-0.078,0.039-0.117,0.058C2.059,8.934,1.398,6.909,0.737,4.885z M2.837,11.076
				c0.117-0.195,0.233-0.389,0.35-0.584c1.243-0.529,3.147-0.226,4.493-0.759c0.233,0,0.467,0,0.7,0
				c0.253,0.409,0.506,0.818,0.759,1.227c0.039,0.039,0.078,0.078,0.117,0.117C7.117,11.076,4.977,11.076,2.837,11.076z
				 M9.373,10.842c0,0.039,0,0.078,0,0.117C9.12,10.569,8.867,10.18,8.615,9.791C8.399,9.446,9.64,5.672,9.957,5.293
				c0.428-0.136,0.856-0.273,1.284-0.409C11.375,5.402,9.742,10.215,9.373,10.842z"/>
		</g>
	</g>
</g>
<g>
</g>
<g>
</g>
<g>
</g>
<g>
</g>
<g>
</g>
<g>
</g>
<g>
</g>
<g>
</g>
<g>
</g>
<g>
</g>
<g>
</g>
<g>
</g>
<g>
</g>
<g>
</g>
<g>
</g>
</svg>
